<svg width="231" height="104" viewBox="0 0 231 104" fill="none" xmlns="http://www.w3.org/2000/svg">
<path d="M63.0576 25.5214C65.8128 23.9576 69.1872 23.9576 71.9424 25.5214L88.4902 34.9133C91.3072 36.5121 93.0477 39.5014 93.0477 42.7405V61.2595C93.0477 64.4986 91.3072 67.4879 88.4902 69.0867L71.9424 78.4786C69.1872 80.0424 65.8128 80.0424 63.0576 78.4786L46.5098 69.0867C43.6928 67.4879 41.9523 64.4986 41.9523 61.2595V42.7405C41.9523 39.5014 43.6928 36.5121 46.5098 34.9133L63.0576 25.5214Z" fill="#CFFFC2"/>
<path d="M25 2.59808C27.7846 0.990381 31.2154 0.990381 34 2.59808L50.5477 12.1519C53.3324 13.7596 55.0477 16.7308 55.0477 19.9462V39.0538C55.0477 42.2692 53.3324 45.2404 50.5477 46.8481L34 56.4019C31.2154 58.0096 27.7846 58.0096 25 56.4019L8.45225 46.8481C5.66764 45.2404 3.95225 42.2692 3.95225 39.0538V19.9462C3.95225 16.7308 5.66764 13.7596 8.45225 12.1519L25 2.59808Z" fill="#CFFFC2"/>
<path d="M25 47.5981C27.7846 45.9904 31.2154 45.9904 34 47.5981L50.5477 57.1519C53.3324 58.7596 55.0477 61.7308 55.0477 64.9462V84.0538C55.0477 87.2692 53.3324 90.2404 50.5477 91.8481L34 101.402C31.2154 103.01 27.7846 103.01 25 101.402L8.45225 91.8481C5.66764 90.2404 3.95225 87.2692 3.95225 84.0538V64.9462C3.95225 61.7308 5.66764 58.7596 8.45225 57.1519L25 47.5981Z" fill="#CFFFC2"/>
<path d="M48.5298 19.0493L29.2709 7.93018L10.012 19.0493M48.5298 19.0493V41.2876L29.2709 52.4067M48.5298 19.0493L29.2709 30.1684M29.2709 52.4067L10.012 41.2876V19.0493M29.2709 52.4067V30.1684M10.012 19.0493L29.2709 30.1684" stroke="black" stroke-width="3"/>
<path d="M48.5298 63.5253L29.2709 52.4062L10.012 63.5253M48.5298 63.5253V85.7636L29.2709 96.8827M48.5298 63.5253L29.2709 74.6445M29.2709 96.8827L10.012 85.7636V63.5253M29.2709 96.8827V74.6445M10.012 63.5253L29.2709 74.6445" stroke="black" stroke-width="3"/>
<path d="M87.0464 41.2873L67.7875 30.1682L48.5286 41.2873M87.0464 41.2873V63.5256L67.7875 74.6447M87.0464 41.2873L67.7875 52.4064M67.7875 74.6447L48.5286 63.5256V41.2873M67.7875 74.6447V52.4064M48.5286 41.2873L67.7875 52.4064" stroke="black" stroke-width="3"/>
<path d="M122.864 65V35.9091H125.52V62.6136H139.384V65H122.864ZM145.364 35.9091H148.432L158.986 61.25H159.241L169.795 35.9091H172.864V65H170.364V41.5199H170.136L160.321 65H157.906L148.091 41.5199H147.864V65H145.364V35.9091ZM180.598 65V35.9091H189.987C192.052 35.9091 193.775 36.2831 195.158 37.0312C196.55 37.7699 197.596 38.7973 198.297 40.1136C199.007 41.4205 199.362 42.9214 199.362 44.6165C199.362 46.3116 199.007 47.8078 198.297 49.1051C197.596 50.4025 196.554 51.4157 195.172 52.1449C193.789 52.8741 192.075 53.2386 190.03 53.2386H182.033V50.8097H189.959C191.474 50.8097 192.733 50.5587 193.737 50.0568C194.75 49.5549 195.503 48.84 195.996 47.9119C196.498 46.9839 196.749 45.8854 196.749 44.6165C196.749 43.3475 196.498 42.2396 195.996 41.2926C195.494 40.3362 194.736 39.5975 193.723 39.0767C192.719 38.5559 191.45 38.2955 189.916 38.2955H183.254V65H180.598ZM193.425 51.875L200.584 65H197.516L190.428 51.875H193.425ZM228.616 45H225.946C225.747 44.0057 225.387 43.0871 224.866 42.2443C224.355 41.392 223.711 40.6487 222.935 40.0142C222.158 39.3797 221.277 38.8873 220.293 38.5369C219.308 38.1866 218.242 38.0114 217.097 38.0114C215.259 38.0114 213.583 38.4896 212.068 39.446C210.563 40.4025 209.355 41.8087 208.446 43.6648C207.546 45.5114 207.097 47.7746 207.097 50.4545C207.097 53.1534 207.546 55.4261 208.446 57.2727C209.355 59.1193 210.563 60.5208 212.068 61.4773C213.583 62.4242 215.259 62.8977 217.097 62.8977C218.242 62.8977 219.308 62.7225 220.293 62.3722C221.277 62.0218 222.158 61.5341 222.935 60.9091C223.711 60.2746 224.355 59.5312 224.866 58.679C225.387 57.8267 225.747 56.9034 225.946 55.9091H228.616C228.38 57.2443 227.935 58.4896 227.281 59.6449C226.637 60.7907 225.813 61.7945 224.81 62.6562C223.815 63.518 222.67 64.1903 221.372 64.6733C220.075 65.1562 218.65 65.3977 217.097 65.3977C214.653 65.3977 212.485 64.7869 210.591 63.5653C208.697 62.3343 207.21 60.6013 206.131 58.3665C205.061 56.1316 204.526 53.4943 204.526 50.4545C204.526 47.4148 205.061 44.7775 206.131 42.5426C207.21 40.3078 208.697 38.5795 210.591 37.358C212.485 36.1269 214.653 35.5114 217.097 35.5114C218.65 35.5114 220.075 35.7528 221.372 36.2358C222.67 36.7093 223.815 37.3816 224.81 38.2528C225.813 39.1146 226.637 40.1184 227.281 41.2642C227.935 42.41 228.38 43.6553 228.616 45Z" fill="black"/>
</svg>
